<?xml version="1.0" standalone="no"?>
<!DOCTYPE svg PUBLIC "-//W3C//DTD SVG 20010904//EN"
 "http://www.w3.org/TR/2001/REC-SVG-20010904/DTD/svg10.dtd">
<svg version="1.0" xmlns="http://www.w3.org/2000/svg"
 width="700.000000pt" height="700.000000pt" viewBox="0 0 700.000000 700.000000"
 preserveAspectRatio="xMidYMid meet">
<metadata>
Created by potrace 1.11, written by Peter Selinger 2001-2013
</metadata>
<g transform="translate(0.000000,700.000000) scale(0.100000,-0.100000)"
fill="#000000" stroke="none">
<path d="M1829 6626 c-2 -2 -31 -6 -64 -10 -129 -13 -349 -69 -460 -116 -273
-116 -476 -251 -676 -450 -351 -348 -562 -800 -617 -1315 -9 -90 -9 -388 1
-485 9 -97 24 -198 38 -258 6 -26 12 -51 13 -57 1 -5 8 -37 15 -70 20 -95 67
-243 128 -400 35 -90 124 -287 143 -315 6 -8 17 -29 24 -45 51 -110 224 -380
357 -558 137 -182 373 -455 391 -450 4 2 7 -1 5 -7 -5 -19 409 -419 497 -479
11 -9 26 -20 31 -26 6 -6 35 -31 65 -55 30 -24 60 -49 65 -55 6 -6 39 -33 75
-60 36 -27 70 -53 75 -58 291 -237 875 -613 1367 -881 l197 -108 93 50 c51 28
122 66 156 86 35 20 66 36 68 36 2 0 25 13 52 29 26 15 68 40 93 53 165 95
484 293 649 406 170 116 477 341 565 413 268 222 382 325 590 533 179 180 228
233 310 331 28 33 52 62 55 65 41 40 216 278 295 400 137 211 171 269 263 460
114 236 213 514 246 690 2 14 9 45 15 70 5 25 13 68 17 95 3 28 8 59 10 70 19
91 26 441 11 587 -18 189 -82 445 -155 623 -58 141 -186 363 -276 480 -252
324 -588 565 -959 689 -105 35 -124 40 -197 52 -19 3 -38 8 -41 10 -4 2 -22 6
-40 9 -19 2 -61 9 -94 14 -63 10 -428 8 -480 -3 -16 -3 -46 -9 -65 -12 -19 -3
-46 -8 -59 -10 -352 -66 -755 -280 -1061 -563 -30 -28 -57 -51 -60 -51 -3 0
-28 21 -55 47 -287 268 -666 477 -1000 552 -90 20 -99 22 -200 36 -86 12 -406
20 -416 11z"/>
</g>
</svg>
