<?xml version="1.0" encoding="utf-8"?>
<!-- Generator: Adobe Illustrator 16.0.0, SVG Export Plug-In . SVG Version: 6.00 Build 0)  -->
<!DOCTYPE svg PUBLIC "-//W3C//DTD SVG 1.1//EN" "http://www.w3.org/Graphics/SVG/1.1/DTD/svg11.dtd">
<svg version="1.1" id="Capa_1" xmlns="http://www.w3.org/2000/svg" xmlns:xlink="http://www.w3.org/1999/xlink" x="0px" y="0px"
	 width="1000px" height="1000px" viewBox="0 0 1000 1000" enable-background="new 0 0 1000 1000" xml:space="preserve">
<circle fill="#F7A8AC" cx="500" cy="500" r="500"/>
<path fill="#BE8287" d="M1000,500c0-4.531-0.068-9.045-0.188-13.547L794.449,281.092c-18.518-20.568-41.043-36.926-66.402-47.234
	c-20.01-8.135-39.639-11.928-58.801-11.811c-1.055-0.02-2.129-0.035-3.244-0.035c-92.391,0-143.25,69.963-160.76,99.844
	l-41.84-41.768c-27.223-28.777-69.619-58.076-129.404-58.076c-1.117,0-2.191,0.014-3.246,0.035
	c-19.162-0.117-38.791,3.676-58.801,11.811c-78.553,31.932-130.145,121.658-118.465,216.012
	c11.686,94.412,59.869,167.23,116.836,221.795l320.15,320.15C823.424,949.234,1000,745.248,1000,500z"/>
<path fill="#E6021F" d="M728.047,233.857c-20.01-8.135-39.639-11.928-58.801-11.811c-1.055-0.021-2.129-0.035-3.244-0.035
	c-104.678,0-156.053,89.822-166.002,109.389c-9.949-19.566-61.324-109.389-166.002-109.389c-1.117,0-2.191,0.014-3.246,0.035
	c-19.162-0.117-38.791,3.676-58.801,11.811c-78.553,31.932-130.145,121.658-118.465,216.012
	C184.6,701.236,474.414,799.557,499.998,807.764c25.584-8.207,315.398-106.527,346.512-357.895
	C858.191,355.514,806.6,265.789,728.047,233.857z"/>
<path fill="#AF1916" d="M846.512,449.873C815.4,701.24,525.576,799.555,500,807.758V331.4
	c9.949-19.566,61.316-109.395,166.002-109.395c1.117,0,2.199,0.018,3.246,0.035c19.156-0.107,38.791,3.682,58.799,11.813
	C806.604,265.785,858.184,355.506,846.512,449.873z"/>
<polygon fill="#FEE572" points="592.688,506.723 520.168,507.057 568.508,350.773 403.406,561.523 483.426,561.156 456.709,714.576 
	"/>
<polygon fill="#FFCB26" points="592.695,506.719 500,648.398 500,438.223 568.516,350.781 520.176,507.051 "/>
</svg>
