<?xml version="1.0" encoding="iso-8859-1"?>
<!-- Generator: Adobe Illustrator 19.0.0, SVG Export Plug-In . SVG Version: 6.00 Build 0)  -->
<svg version="1.1" id="Capa_1" xmlns="http://www.w3.org/2000/svg" xmlns:xlink="http://www.w3.org/1999/xlink" x="0px" y="0px"
	 viewBox="0 0 512 512" style="enable-background:new 0 0 512 512;" xml:space="preserve">
<circle style="fill:#E7E7E8;" cx="256" cy="256" r="256"/>
<path style="fill:#BCBBC0;" d="M512,256c0-2.32-0.035-4.631-0.096-6.936L406.758,143.919c-9.481-10.531-21.014-18.906-33.998-24.184
	c-10.245-4.165-20.295-6.107-30.106-6.047c-0.54-0.01-1.09-0.018-1.661-0.018c-47.304,0-73.344,35.821-82.309,51.12l-21.422-21.385
	c-13.938-14.734-35.645-29.735-66.255-29.735c-0.572,0-1.122,0.007-1.662,0.018c-9.811-0.06-19.861,1.882-30.106,6.047
	c-40.219,16.349-66.634,62.289-60.654,110.598c5.983,48.339,30.653,85.622,59.82,113.559l163.917,163.917
	C421.593,486.008,512,381.567,512,256z"/>
<path style="fill:#E6021F;" d="M372.76,119.735c-10.245-4.165-20.295-6.107-30.106-6.047c-0.54-0.011-1.09-0.018-1.661-0.018
	c-53.595,0-79.899,45.989-84.993,56.007c-5.094-10.018-31.398-56.007-84.993-56.007c-0.572,0-1.122,0.007-1.662,0.018
	c-9.811-0.06-19.861,1.882-30.106,6.047c-40.219,16.349-66.634,62.289-60.654,110.598c15.93,128.7,164.315,179.04,177.414,183.242
	c13.099-4.202,161.484-54.542,177.414-183.242C439.394,182.023,412.979,136.084,372.76,119.735z"/>
<path style="fill:#AF1916;" d="M433.414,230.335C417.485,359.035,269.095,409.372,256,413.572V169.677
	c5.094-10.018,31.394-56.01,84.993-56.01c0.572,0,1.126,0.009,1.662,0.018c9.808-0.055,19.861,1.885,30.105,6.048
	C412.981,136.082,439.39,182.019,433.414,230.335z"/>
<polygon style="fill:#FEE572;" points="303.456,259.442 266.326,259.613 291.076,179.596 206.544,287.5 247.514,287.312 
	233.835,365.863 "/>
<polygon style="fill:#FFCB26;" points="303.46,259.44 256,331.98 256,224.37 291.08,179.6 266.33,259.61 "/>
<g>
</g>
<g>
</g>
<g>
</g>
<g>
</g>
<g>
</g>
<g>
</g>
<g>
</g>
<g>
</g>
<g>
</g>
<g>
</g>
<g>
</g>
<g>
</g>
<g>
</g>
<g>
</g>
<g>
</g>
</svg>
