<?xml version="1.0" encoding="utf-8"?>
<!-- Generator: Adobe Illustrator 16.0.0, SVG Export Plug-In . SVG Version: 6.00 Build 0)  -->
<!DOCTYPE svg PUBLIC "-//W3C//DTD SVG 1.1//EN" "http://www.w3.org/Graphics/SVG/1.1/DTD/svg11.dtd">
<svg version="1.1" id="Layer_1" xmlns="http://www.w3.org/2000/svg" xmlns:xlink="http://www.w3.org/1999/xlink" x="0px" y="0px"
	 width="1000px" height="1000px" viewBox="0 0 1000 1000" enable-background="new 0 0 1000 1000" xml:space="preserve">
<circle fill="#E7E7E8" cx="499.999" cy="499.897" r="499.897"/>
<path fill="#BBBABF" d="M462.271,998.582l-281.6-281.601l206.127-87.443L625.79,397.239l24.346-181.172l346.116,346.116
	C965.617,808.887,755.229,1000,500.208,1000C487.427,1000.002,474.849,999.596,462.271,998.582z"/>
<path fill="#FFC964" d="M441.979,449.179c8.318-17.041,29.418-51.125,74.051-77.094c62.285-36.112,85.008-115.641,88.051-137.756
	c3.043-22.316,56.4-48.488,62.893,23.533s-37.33,120.715-37.33,120.715h151.147c46.258-6.492,53.561,69.184,8.115,69.994
	l-14.406,0.203l-0.406,3.854h8.725c36.723,0,36.723,72.023,0,72.023h-1.826c27.592,9.131,25.766,70.602-8.318,70.602h-9.738v0.203
	c23.33,5.072,20.898,26.779,20.898,44.836c0,30.434-79.124,46.461-99.007,51.938c-57.416,15.621-133.09-1.826-197.402-7.709
	l-40.373-4.667H358.8V449.179h83.383H441.979z"/>
<path fill="#FFFFFF" d="M328.569,432.948h102.049v263.543H328.569V432.948L328.569,432.948z"/>
<path fill="#006775" d="M180.67,412.255h181.782v304.727H180.67V412.255z"/>
</svg>
